<svg width="30" height="30" viewBox="0 0 30 30" fill="none" xmlns="http://www.w3.org/2000/svg">
<g clip-path="url(#clip0_239_4803)">
<path d="M26.7091 12.1898C27.0964 12.4514 27.5 12.8614 27.5 13.4375V15.3125C27.5 15.8886 27.0964 16.2986 26.7091 16.5602C26.4893 16.7087 26.2286 16.8422 25.9375 16.9615V17.5C25.9375 17.629 25.9173 17.7497 25.8815 17.8623C26.0933 18.0965 26.25 18.391 26.25 18.75V20.625C26.25 21.2011 25.8464 21.6111 25.4591 21.8727C25.05 22.1491 24.4992 22.3733 23.8746 22.5518C22.6169 22.9111 20.9158 23.125 19.0625 23.125C17.2092 23.125 15.5081 22.9111 14.2504 22.5518C13.6258 22.3733 13.0749 22.1491 12.6659 21.8727C12.2786 21.6111 11.875 21.2011 11.875 20.625V18.75C11.875 18.621 11.8952 18.5003 11.931 18.3877C11.7192 18.1535 11.5625 17.859 11.5625 17.5V15.625C11.5625 15.0489 11.9661 14.6389 12.3534 14.3773C12.5732 14.2288 12.8339 14.0953 13.125 13.976V13.4375C13.125 12.8614 13.5286 12.4514 13.9159 12.1898C14.3249 11.9134 14.8758 11.6892 15.5004 11.5107C16.7581 11.1514 18.4592 10.9375 20.3125 10.9375C22.1658 10.9375 23.8669 11.1514 25.1246 11.5107C25.7492 11.6892 26.3 11.9134 26.7091 12.1898Z" fill="#021024" fill-opacity="0.1"/>
<path d="M25 18.125C25 17.0895 22.0619 16.25 18.4375 16.25C14.8131 16.25 11.875 17.0895 11.875 18.125V20C11.875 21.0355 14.8131 21.875 18.4375 21.875C22.0619 21.875 25 21.0355 25 20V18.125Z" fill="#D18A00"/>
<path fill-rule="evenodd" clip-rule="evenodd" d="M24.8341 16.8773C25.2214 17.1389 25.625 17.5489 25.625 18.125V20C25.625 20.5761 25.2214 20.9861 24.8341 21.2477C24.425 21.5241 23.8742 21.7483 23.2496 21.9268C21.9919 22.2861 20.2908 22.5 18.4375 22.5C16.5842 22.5 14.8831 22.2861 13.6254 21.9268C13.0008 21.7483 12.4499 21.5241 12.0409 21.2477C11.6536 20.9861 11.25 20.5761 11.25 20V18.125C11.25 17.5489 11.6536 17.1389 12.0409 16.8773C12.4499 16.6009 13.0008 16.3767 13.6254 16.1982C14.8831 15.8389 16.5842 15.625 18.4375 15.625C20.2908 15.625 21.9919 15.8389 23.2496 16.1982C23.8742 16.3767 24.425 16.6009 24.8341 16.8773ZM18.4375 16.25C22.0619 16.25 25 17.0895 25 18.125V20C25 21.0355 22.0619 21.875 18.4375 21.875C14.8131 21.875 11.875 21.0355 11.875 20V18.125C11.875 17.0895 14.8131 16.25 18.4375 16.25Z" fill="#B96F00"/>
<path d="M25 18.125C25 19.1605 22.0619 20 18.4375 20C14.8131 20 11.875 19.1605 11.875 18.125C11.875 17.0895 14.8131 16.25 18.4375 16.25C22.0619 16.25 25 17.0895 25 18.125Z" fill="#FFCF23"/>
<path fill-rule="evenodd" clip-rule="evenodd" d="M23.2496 20.0518C21.9919 20.4111 20.2908 20.625 18.4375 20.625C16.5842 20.625 14.8831 20.4111 13.6254 20.0518C13.0008 19.8733 12.4499 19.6491 12.0409 19.3727C11.6536 19.1111 11.25 18.7011 11.25 18.125C11.25 17.5489 11.6536 17.1389 12.0409 16.8773C12.4499 16.6009 13.0008 16.3767 13.6254 16.1982C14.8831 15.8389 16.5842 15.625 18.4375 15.625C20.2908 15.625 21.9919 15.8389 23.2496 16.1982C23.8742 16.3767 24.425 16.6009 24.8341 16.8773C25.2214 17.1389 25.625 17.5489 25.625 18.125C25.625 18.7011 25.2214 19.1111 24.8341 19.3727C24.425 19.6491 23.8742 19.8733 23.2496 20.0518ZM18.4375 20C22.0619 20 25 19.1605 25 18.125C25 17.0895 22.0619 16.25 18.4375 16.25C14.8131 16.25 11.875 17.0895 11.875 18.125C11.875 19.1605 14.8131 20 18.4375 20Z" fill="#B96F00"/>
<path fill-rule="evenodd" clip-rule="evenodd" d="M13.4375 19.375C13.6101 19.375 13.75 19.5149 13.75 19.6875V21.4062C13.75 21.5788 13.6101 21.7188 13.4375 21.7188C13.2649 21.7188 13.125 21.5788 13.125 21.4062V19.6875C13.125 19.5149 13.2649 19.375 13.4375 19.375Z" fill="#B96F00"/>
<path fill-rule="evenodd" clip-rule="evenodd" d="M23.4375 19.375C23.6101 19.375 23.75 19.5149 23.75 19.6875V21.4062C23.75 21.5788 23.6101 21.7188 23.4375 21.7188C23.2649 21.7188 23.125 21.5788 23.125 21.4062V19.6875C23.125 19.5149 23.2649 19.375 23.4375 19.375Z" fill="#B96F00"/>
<path fill-rule="evenodd" clip-rule="evenodd" d="M15.9375 20C16.1101 20 16.25 20.1399 16.25 20.3125V21.7188C16.25 21.8913 16.1101 22.0312 15.9375 22.0312C15.7649 22.0312 15.625 21.8913 15.625 21.7188V20.3125C15.625 20.1399 15.7649 20 15.9375 20Z" fill="#B96F00"/>
<path fill-rule="evenodd" clip-rule="evenodd" d="M21.25 20C21.4226 20 21.5625 20.1399 21.5625 20.3125V21.7188C21.5625 21.8913 21.4226 22.0312 21.25 22.0312C21.0774 22.0312 20.9375 21.8913 20.9375 21.7188V20.3125C20.9375 20.1399 21.0774 20 21.25 20Z" fill="#B96F00"/>
<path fill-rule="evenodd" clip-rule="evenodd" d="M18.75 20C18.9226 20 19.0625 20.1399 19.0625 20.3125V21.7188C19.0625 21.8913 18.9226 22.0312 18.75 22.0312C18.5774 22.0312 18.4375 21.8913 18.4375 21.7188V20.3125C18.4375 20.1399 18.5774 20 18.75 20Z" fill="#B96F00"/>
<path d="M24.6875 15C24.6875 13.9645 21.7494 13.125 18.125 13.125C14.5006 13.125 11.5625 13.9645 11.5625 15V16.875C11.5625 17.9105 14.5006 18.75 18.125 18.75C21.7494 18.75 24.6875 17.9105 24.6875 16.875V15Z" fill="#D18A00"/>
<path fill-rule="evenodd" clip-rule="evenodd" d="M24.5216 13.7523C24.9089 14.0139 25.3125 14.4239 25.3125 15V16.875C25.3125 17.4511 24.9089 17.8611 24.5216 18.1227C24.1125 18.3991 23.5617 18.6233 22.9371 18.8018C21.6794 19.1611 19.9783 19.375 18.125 19.375C16.2717 19.375 14.5706 19.1611 13.3129 18.8018C12.6883 18.6233 12.1374 18.3991 11.7284 18.1227C11.3411 17.8611 10.9375 17.4511 10.9375 16.875V15C10.9375 14.4239 11.3411 14.0139 11.7284 13.7523C12.1374 13.4759 12.6883 13.2517 13.3129 13.0732C14.5706 12.7139 16.2717 12.5 18.125 12.5C19.9783 12.5 21.6794 12.7139 22.9371 13.0732C23.5617 13.2517 24.1125 13.4759 24.5216 13.7523ZM18.125 13.125C21.7494 13.125 24.6875 13.9645 24.6875 15V16.875C24.6875 17.9105 21.7494 18.75 18.125 18.75C14.5006 18.75 11.5625 17.9105 11.5625 16.875V15C11.5625 13.9645 14.5006 13.125 18.125 13.125Z" fill="#B96F00"/>
<path d="M24.6875 15C24.6875 16.0355 21.7494 16.875 18.125 16.875C14.5006 16.875 11.5625 16.0355 11.5625 15C11.5625 13.9645 14.5006 13.125 18.125 13.125C21.7494 13.125 24.6875 13.9645 24.6875 15Z" fill="#FFCF23"/>
<path fill-rule="evenodd" clip-rule="evenodd" d="M22.9371 16.9268C21.6794 17.2861 19.9783 17.5 18.125 17.5C16.2717 17.5 14.5706 17.2861 13.3129 16.9268C12.6883 16.7483 12.1374 16.5241 11.7284 16.2477C11.3411 15.9861 10.9375 15.5761 10.9375 15C10.9375 14.4239 11.3411 14.0139 11.7284 13.7523C12.1374 13.4759 12.6883 13.2517 13.3129 13.0732C14.5706 12.7139 16.2717 12.5 18.125 12.5C19.9783 12.5 21.6794 12.7139 22.9371 13.0732C23.5617 13.2517 24.1125 13.4759 24.5216 13.7523C24.9089 14.0139 25.3125 14.4239 25.3125 15C25.3125 15.5761 24.9089 15.9861 24.5216 16.2477C24.1125 16.5241 23.5617 16.7483 22.9371 16.9268ZM18.125 16.875C21.7494 16.875 24.6875 16.0355 24.6875 15C24.6875 13.9645 21.7494 13.125 18.125 13.125C14.5006 13.125 11.5625 13.9645 11.5625 15C11.5625 16.0355 14.5006 16.875 18.125 16.875Z" fill="#B96F00"/>
<path fill-rule="evenodd" clip-rule="evenodd" d="M13.125 16.25C13.2976 16.25 13.4375 16.3899 13.4375 16.5625V18.2812C13.4375 18.4538 13.2976 18.5938 13.125 18.5938C12.9524 18.5938 12.8125 18.4538 12.8125 18.2812V16.5625C12.8125 16.3899 12.9524 16.25 13.125 16.25Z" fill="#B96F00"/>
<path fill-rule="evenodd" clip-rule="evenodd" d="M23.125 16.25C23.2976 16.25 23.4375 16.3899 23.4375 16.5625V18.2812C23.4375 18.4538 23.2976 18.5938 23.125 18.5938C22.9524 18.5938 22.8125 18.4538 22.8125 18.2812V16.5625C22.8125 16.3899 22.9524 16.25 23.125 16.25Z" fill="#B96F00"/>
<path fill-rule="evenodd" clip-rule="evenodd" d="M15.625 16.875C15.7976 16.875 15.9375 17.0149 15.9375 17.1875V18.5938C15.9375 18.7663 15.7976 18.9062 15.625 18.9062C15.4524 18.9062 15.3125 18.7663 15.3125 18.5938V17.1875C15.3125 17.0149 15.4524 16.875 15.625 16.875Z" fill="#B96F00"/>
<path fill-rule="evenodd" clip-rule="evenodd" d="M20.9375 16.875C21.1101 16.875 21.25 17.0149 21.25 17.1875V18.5938C21.25 18.7663 21.1101 18.9062 20.9375 18.9062C20.7649 18.9062 20.625 18.7663 20.625 18.5938V17.1875C20.625 17.0149 20.7649 16.875 20.9375 16.875Z" fill="#B96F00"/>
<path fill-rule="evenodd" clip-rule="evenodd" d="M18.4375 16.875C18.6101 16.875 18.75 17.0149 18.75 17.1875V18.5938C18.75 18.7663 18.6101 18.9062 18.4375 18.9062C18.2649 18.9062 18.125 18.7663 18.125 18.5938V17.1875C18.125 17.0149 18.2649 16.875 18.4375 16.875Z" fill="#B96F00"/>
<path d="M26.25 12.8125C26.25 11.777 23.3119 10.9375 19.6875 10.9375C16.0631 10.9375 13.125 11.777 13.125 12.8125V14.6875C13.125 15.723 16.0631 16.5625 19.6875 16.5625C23.3119 16.5625 26.25 15.723 26.25 14.6875V12.8125Z" fill="#D18A00"/>
<path fill-rule="evenodd" clip-rule="evenodd" d="M26.0841 11.5648C26.4714 11.8264 26.875 12.2364 26.875 12.8125V14.6875C26.875 15.2636 26.4714 15.6736 26.0841 15.9352C25.675 16.2116 25.1242 16.4358 24.4996 16.6143C23.2419 16.9736 21.5408 17.1875 19.6875 17.1875C17.8342 17.1875 16.1331 16.9736 14.8754 16.6143C14.2508 16.4358 13.6999 16.2116 13.2909 15.9352C12.9036 15.6736 12.5 15.2636 12.5 14.6875V12.8125C12.5 12.2364 12.9036 11.8264 13.2909 11.5648C13.6999 11.2884 14.2508 11.0642 14.8754 10.8857C16.1331 10.5264 17.8342 10.3125 19.6875 10.3125C21.5408 10.3125 23.2419 10.5264 24.4996 10.8857C25.1242 11.0642 25.675 11.2884 26.0841 11.5648ZM19.6875 10.9375C23.3119 10.9375 26.25 11.777 26.25 12.8125V14.6875C26.25 15.723 23.3119 16.5625 19.6875 16.5625C16.0631 16.5625 13.125 15.723 13.125 14.6875V12.8125C13.125 11.777 16.0631 10.9375 19.6875 10.9375Z" fill="#B96F00"/>
<path d="M26.25 12.8125C26.25 13.848 23.3119 14.6875 19.6875 14.6875C16.0631 14.6875 13.125 13.848 13.125 12.8125C13.125 11.777 16.0631 10.9375 19.6875 10.9375C23.3119 10.9375 26.25 11.777 26.25 12.8125Z" fill="#FFCF23"/>
<path fill-rule="evenodd" clip-rule="evenodd" d="M24.4996 14.7393C23.2419 15.0986 21.5408 15.3125 19.6875 15.3125C17.8342 15.3125 16.1331 15.0986 14.8754 14.7393C14.2508 14.5608 13.6999 14.3366 13.2909 14.0602C12.9036 13.7986 12.5 13.3886 12.5 12.8125C12.5 12.2364 12.9036 11.8264 13.2909 11.5648C13.6999 11.2884 14.2508 11.0642 14.8754 10.8857C16.1331 10.5264 17.8342 10.3125 19.6875 10.3125C21.5408 10.3125 23.2419 10.5264 24.4996 10.8857C25.1242 11.0642 25.675 11.2884 26.0841 11.5648C26.4714 11.8264 26.875 12.2364 26.875 12.8125C26.875 13.3886 26.4714 13.7986 26.0841 14.0602C25.675 14.3366 25.1242 14.5608 24.4996 14.7393ZM19.6875 14.6875C23.3119 14.6875 26.25 13.848 26.25 12.8125C26.25 11.777 23.3119 10.9375 19.6875 10.9375C16.0631 10.9375 13.125 11.777 13.125 12.8125C13.125 13.848 16.0631 14.6875 19.6875 14.6875Z" fill="#B96F00"/>
<path fill-rule="evenodd" clip-rule="evenodd" d="M14.6875 14.0625C14.8601 14.0625 15 14.2024 15 14.375V16.0938C15 16.2663 14.8601 16.4062 14.6875 16.4062C14.5149 16.4062 14.375 16.2663 14.375 16.0938V14.375C14.375 14.2024 14.5149 14.0625 14.6875 14.0625Z" fill="#B96F00"/>
<path fill-rule="evenodd" clip-rule="evenodd" d="M24.6875 14.0625C24.8601 14.0625 25 14.2024 25 14.375V16.0938C25 16.2663 24.8601 16.4062 24.6875 16.4062C24.5149 16.4062 24.375 16.2663 24.375 16.0938V14.375C24.375 14.2024 24.5149 14.0625 24.6875 14.0625Z" fill="#B96F00"/>
<path fill-rule="evenodd" clip-rule="evenodd" d="M17.1875 14.6875C17.3601 14.6875 17.5 14.8274 17.5 15V16.4062C17.5 16.5788 17.3601 16.7188 17.1875 16.7188C17.0149 16.7188 16.875 16.5788 16.875 16.4062V15C16.875 14.8274 17.0149 14.6875 17.1875 14.6875Z" fill="#B96F00"/>
<path fill-rule="evenodd" clip-rule="evenodd" d="M22.5 14.6875C22.6726 14.6875 22.8125 14.8274 22.8125 15V16.4062C22.8125 16.5788 22.6726 16.7188 22.5 16.7188C22.3274 16.7188 22.1875 16.5788 22.1875 16.4062V15C22.1875 14.8274 22.3274 14.6875 22.5 14.6875Z" fill="#B96F00"/>
<path fill-rule="evenodd" clip-rule="evenodd" d="M20 14.6875C20.1726 14.6875 20.3125 14.8274 20.3125 15V16.4062C20.3125 16.5788 20.1726 16.7188 20 16.7188C19.8274 16.7188 19.6875 16.5788 19.6875 16.4062V15C19.6875 14.8274 19.8274 14.6875 20 14.6875Z" fill="#B96F00"/>
<path d="M18.75 10.3125C18.75 9.73643 18.3464 9.32636 17.9591 9.06476C17.55 8.78842 16.9992 8.56417 16.3746 8.38572C15.1169 8.02639 13.4158 7.8125 11.5625 7.8125C9.70921 7.8125 8.00808 8.02639 6.75041 8.38572C6.12583 8.56417 5.57495 8.78842 5.16586 9.06476C4.77859 9.32636 4.375 9.73643 4.375 10.3125V12.1875C4.375 12.7636 4.77859 13.1736 5.16586 13.4352C5.43839 13.6193 5.77384 13.7803 6.15209 13.92C6.03578 13.9491 5.92266 13.9794 5.81291 14.0107C5.18833 14.1892 4.63745 14.4134 4.22836 14.6898C3.84109 14.9514 3.4375 15.3614 3.4375 15.9375V17.8125C3.4375 18.3886 3.84109 18.7986 4.22836 19.0602C4.59591 19.3085 5.07792 19.5147 5.625 19.6835V19.7405C5.4576 19.822 5.30368 19.9092 5.16586 20.0023C4.77859 20.2639 4.375 20.6739 4.375 21.25V23.125C4.375 23.7011 4.77859 24.1111 5.16586 24.3727C5.57495 24.6491 6.12583 24.8733 6.75041 25.0518C8.00808 25.4111 9.70921 25.625 11.5625 25.625C13.4158 25.625 15.1169 25.4111 16.3746 25.0518C16.9992 24.8733 17.55 24.6491 17.9591 24.3727C18.3464 24.1111 18.75 23.7011 18.75 23.125V21.822C18.9174 21.7405 19.0713 21.6533 19.2091 21.5602C19.5964 21.2986 20 20.8886 20 20.3125V18.4375C20 17.8614 19.5964 17.4514 19.2091 17.1898C19.0179 17.0606 18.7956 16.9427 18.5493 16.8357C19.0503 16.6737 19.4918 16.479 19.8341 16.2477C20.2214 15.9861 20.625 15.5761 20.625 15V13.125C20.625 12.5489 20.2214 12.1389 19.8341 11.8773C19.5383 11.6774 19.1684 11.5048 18.75 11.3571V10.3125Z" fill="#021024" fill-opacity="0.1"/>
<path d="M17.5 20.625C17.5 19.5895 14.5619 18.75 10.9375 18.75C7.31313 18.75 4.375 19.5895 4.375 20.625V22.5C4.375 23.5355 7.31313 24.375 10.9375 24.375C14.5619 24.375 17.5 23.5355 17.5 22.5V20.625Z" fill="#D18A00"/>
<path fill-rule="evenodd" clip-rule="evenodd" d="M17.3341 19.3773C17.7214 19.6389 18.125 20.0489 18.125 20.625V22.5C18.125 23.0761 17.7214 23.4861 17.3341 23.7477C16.925 24.0241 16.3742 24.2483 15.7496 24.4268C14.4919 24.7861 12.7908 25 10.9375 25C9.08421 25 7.38308 24.7861 6.12541 24.4268C5.50083 24.2483 4.94995 24.0241 4.54086 23.7477C4.15359 23.4861 3.75 23.0761 3.75 22.5V20.625C3.75 20.0489 4.15359 19.6389 4.54086 19.3773C4.94995 19.1009 5.50083 18.8767 6.12541 18.6982C7.38308 18.3389 9.08421 18.125 10.9375 18.125C12.7908 18.125 14.4919 18.3389 15.7496 18.6982C16.3742 18.8767 16.925 19.1009 17.3341 19.3773ZM10.9375 18.75C14.5619 18.75 17.5 19.5895 17.5 20.625V22.5C17.5 23.5355 14.5619 24.375 10.9375 24.375C7.31313 24.375 4.375 23.5355 4.375 22.5V20.625C4.375 19.5895 7.31313 18.75 10.9375 18.75Z" fill="#B96F00"/>
<path d="M17.5 20.625C17.5 21.6605 14.5619 22.5 10.9375 22.5C7.31313 22.5 4.375 21.6605 4.375 20.625C4.375 19.5895 7.31313 18.75 10.9375 18.75C14.5619 18.75 17.5 19.5895 17.5 20.625Z" fill="#FFCF23"/>
<path fill-rule="evenodd" clip-rule="evenodd" d="M15.7496 22.5518C14.4919 22.9111 12.7908 23.125 10.9375 23.125C9.08421 23.125 7.38308 22.9111 6.12541 22.5518C5.50083 22.3733 4.94995 22.1491 4.54086 21.8727C4.15359 21.6111 3.75 21.2011 3.75 20.625C3.75 20.0489 4.15359 19.6389 4.54086 19.3773C4.94995 19.1009 5.50083 18.8767 6.12541 18.6982C7.38308 18.3389 9.08421 18.125 10.9375 18.125C12.7908 18.125 14.4919 18.3389 15.7496 18.6982C16.3742 18.8767 16.925 19.1009 17.3341 19.3773C17.7214 19.6389 18.125 20.0489 18.125 20.625C18.125 21.2011 17.7214 21.6111 17.3341 21.8727C16.925 22.1491 16.3742 22.3733 15.7496 22.5518ZM10.9375 22.5C14.5619 22.5 17.5 21.6605 17.5 20.625C17.5 19.5895 14.5619 18.75 10.9375 18.75C7.31313 18.75 4.375 19.5895 4.375 20.625C4.375 21.6605 7.31313 22.5 10.9375 22.5Z" fill="#B96F00"/>
<path fill-rule="evenodd" clip-rule="evenodd" d="M5.9375 21.875C6.11009 21.875 6.25 22.0149 6.25 22.1875V23.9062C6.25 24.0788 6.11009 24.2188 5.9375 24.2188C5.76491 24.2188 5.625 24.0788 5.625 23.9062V22.1875C5.625 22.0149 5.76491 21.875 5.9375 21.875Z" fill="#B96F00"/>
<path fill-rule="evenodd" clip-rule="evenodd" d="M15.9375 21.875C16.1101 21.875 16.25 22.0149 16.25 22.1875V23.9062C16.25 24.0788 16.1101 24.2188 15.9375 24.2188C15.7649 24.2188 15.625 24.0788 15.625 23.9062V22.1875C15.625 22.0149 15.7649 21.875 15.9375 21.875Z" fill="#B96F00"/>
<path fill-rule="evenodd" clip-rule="evenodd" d="M8.4375 22.5C8.61009 22.5 8.75 22.6399 8.75 22.8125V24.2188C8.75 24.3913 8.61009 24.5312 8.4375 24.5312C8.26491 24.5312 8.125 24.3913 8.125 24.2188V22.8125C8.125 22.6399 8.26491 22.5 8.4375 22.5Z" fill="#B96F00"/>
<path fill-rule="evenodd" clip-rule="evenodd" d="M13.75 22.5C13.9226 22.5 14.0625 22.6399 14.0625 22.8125V24.2188C14.0625 24.3913 13.9226 24.5312 13.75 24.5312C13.5774 24.5312 13.4375 24.3913 13.4375 24.2188V22.8125C13.4375 22.6399 13.5774 22.5 13.75 22.5Z" fill="#B96F00"/>
<path fill-rule="evenodd" clip-rule="evenodd" d="M11.25 22.5C11.4226 22.5 11.5625 22.6399 11.5625 22.8125V24.2188C11.5625 24.3913 11.4226 24.5312 11.25 24.5312C11.0774 24.5312 10.9375 24.3913 10.9375 24.2188V22.8125C10.9375 22.6399 11.0774 22.5 11.25 22.5Z" fill="#B96F00"/>
<path d="M18.75 17.8125C18.75 16.777 15.8119 15.9375 12.1875 15.9375C8.56313 15.9375 5.625 16.777 5.625 17.8125V19.6875C5.625 20.723 8.56313 21.5625 12.1875 21.5625C15.8119 21.5625 18.75 20.723 18.75 19.6875V17.8125Z" fill="#D18A00"/>
<path fill-rule="evenodd" clip-rule="evenodd" d="M18.5841 16.5648C18.9714 16.8264 19.375 17.2364 19.375 17.8125V19.6875C19.375 20.2636 18.9714 20.6736 18.5841 20.9352C18.175 21.2116 17.6242 21.4358 16.9996 21.6143C15.7419 21.9736 14.0408 22.1875 12.1875 22.1875C10.3342 22.1875 8.63308 21.9736 7.37541 21.6143C6.75083 21.4358 6.19995 21.2116 5.79086 20.9352C5.40359 20.6736 5 20.2636 5 19.6875V17.8125C5 17.2364 5.40359 16.8264 5.79086 16.5648C6.19995 16.2884 6.75083 16.0642 7.37541 15.8857C8.63308 15.5264 10.3342 15.3125 12.1875 15.3125C14.0408 15.3125 15.7419 15.5264 16.9996 15.8857C17.6242 16.0642 18.175 16.2884 18.5841 16.5648ZM12.1875 15.9375C15.8119 15.9375 18.75 16.777 18.75 17.8125V19.6875C18.75 20.723 15.8119 21.5625 12.1875 21.5625C8.56313 21.5625 5.625 20.723 5.625 19.6875V17.8125C5.625 16.777 8.56313 15.9375 12.1875 15.9375Z" fill="#B96F00"/>
<path d="M18.75 17.8125C18.75 18.848 15.8119 19.6875 12.1875 19.6875C8.56313 19.6875 5.625 18.848 5.625 17.8125C5.625 16.777 8.56313 15.9375 12.1875 15.9375C15.8119 15.9375 18.75 16.777 18.75 17.8125Z" fill="#FFCF23"/>
<path fill-rule="evenodd" clip-rule="evenodd" d="M16.9996 19.7393C15.7419 20.0986 14.0408 20.3125 12.1875 20.3125C10.3342 20.3125 8.63308 20.0986 7.37541 19.7393C6.75083 19.5608 6.19995 19.3366 5.79086 19.0602C5.40359 18.7986 5 18.3886 5 17.8125C5 17.2364 5.40359 16.8264 5.79086 16.5648C6.19995 16.2884 6.75083 16.0642 7.37541 15.8857C8.63308 15.5264 10.3342 15.3125 12.1875 15.3125C14.0408 15.3125 15.7419 15.5264 16.9996 15.8857C17.6242 16.0642 18.175 16.2884 18.5841 16.5648C18.9714 16.8264 19.375 17.2364 19.375 17.8125C19.375 18.3886 18.9714 18.7986 18.5841 19.0602C18.175 19.3366 17.6242 19.5608 16.9996 19.7393ZM12.1875 19.6875C15.8119 19.6875 18.75 18.848 18.75 17.8125C18.75 16.777 15.8119 15.9375 12.1875 15.9375C8.56313 15.9375 5.625 16.777 5.625 17.8125C5.625 18.848 8.56313 19.6875 12.1875 19.6875Z" fill="#B96F00"/>
<path fill-rule="evenodd" clip-rule="evenodd" d="M7.1875 19.0625C7.36009 19.0625 7.5 19.2024 7.5 19.375V21.0938C7.5 21.2663 7.36009 21.4062 7.1875 21.4062C7.01491 21.4062 6.875 21.2663 6.875 21.0938V19.375C6.875 19.2024 7.01491 19.0625 7.1875 19.0625Z" fill="#B96F00"/>
<path fill-rule="evenodd" clip-rule="evenodd" d="M17.1875 19.0625C17.3601 19.0625 17.5 19.2024 17.5 19.375V21.0938C17.5 21.2663 17.3601 21.4062 17.1875 21.4062C17.0149 21.4062 16.875 21.2663 16.875 21.0938V19.375C16.875 19.2024 17.0149 19.0625 17.1875 19.0625Z" fill="#B96F00"/>
<path fill-rule="evenodd" clip-rule="evenodd" d="M9.6875 19.6875C9.86009 19.6875 10 19.8274 10 20V21.4062C10 21.5788 9.86009 21.7188 9.6875 21.7188C9.51491 21.7188 9.375 21.5788 9.375 21.4062V20C9.375 19.8274 9.51491 19.6875 9.6875 19.6875Z" fill="#B96F00"/>
<path fill-rule="evenodd" clip-rule="evenodd" d="M15 19.6875C15.1726 19.6875 15.3125 19.8274 15.3125 20V21.4062C15.3125 21.5788 15.1726 21.7188 15 21.7188C14.8274 21.7188 14.6875 21.5788 14.6875 21.4062V20C14.6875 19.8274 14.8274 19.6875 15 19.6875Z" fill="#B96F00"/>
<path fill-rule="evenodd" clip-rule="evenodd" d="M12.5 19.6875C12.6726 19.6875 12.8125 19.8274 12.8125 20V21.4062C12.8125 21.5788 12.6726 21.7188 12.5 21.7188C12.3274 21.7188 12.1875 21.5788 12.1875 21.4062V20C12.1875 19.8274 12.3274 19.6875 12.5 19.6875Z" fill="#B96F00"/>
<path d="M16.5625 15.3125C16.5625 14.277 13.6244 13.4375 10 13.4375C6.37563 13.4375 3.4375 14.277 3.4375 15.3125V17.1875C3.4375 18.223 6.37563 19.0625 10 19.0625C13.6244 19.0625 16.5625 18.223 16.5625 17.1875V15.3125Z" fill="#D18A00"/>
<path fill-rule="evenodd" clip-rule="evenodd" d="M16.3966 14.0648C16.7839 14.3264 17.1875 14.7364 17.1875 15.3125V17.1875C17.1875 17.7636 16.7839 18.1736 16.3966 18.4352C15.9875 18.7116 15.4367 18.9358 14.8121 19.1143C13.5544 19.4736 11.8533 19.6875 10 19.6875C8.14671 19.6875 6.44558 19.4736 5.18791 19.1143C4.56333 18.9358 4.01245 18.7116 3.60336 18.4352C3.21609 18.1736 2.8125 17.7636 2.8125 17.1875V15.3125C2.8125 14.7364 3.21609 14.3264 3.60336 14.0648C4.01245 13.7884 4.56333 13.5642 5.18791 13.3857C6.44558 13.0264 8.14671 12.8125 10 12.8125C11.8533 12.8125 13.5544 13.0264 14.8121 13.3857C15.4367 13.5642 15.9875 13.7884 16.3966 14.0648ZM10 13.4375C13.6244 13.4375 16.5625 14.277 16.5625 15.3125V17.1875C16.5625 18.223 13.6244 19.0625 10 19.0625C6.37563 19.0625 3.4375 18.223 3.4375 17.1875V15.3125C3.4375 14.277 6.37563 13.4375 10 13.4375Z" fill="#B96F00"/>
<path d="M16.5625 15.3125C16.5625 16.348 13.6244 17.1875 10 17.1875C6.37563 17.1875 3.4375 16.348 3.4375 15.3125C3.4375 14.277 6.37563 13.4375 10 13.4375C13.6244 13.4375 16.5625 14.277 16.5625 15.3125Z" fill="#FFCF23"/>
<path fill-rule="evenodd" clip-rule="evenodd" d="M14.8121 17.2393C13.5544 17.5986 11.8533 17.8125 10 17.8125C8.14671 17.8125 6.44558 17.5986 5.18791 17.2393C4.56333 17.0608 4.01245 16.8366 3.60336 16.5602C3.21609 16.2986 2.8125 15.8886 2.8125 15.3125C2.8125 14.7364 3.21609 14.3264 3.60336 14.0648C4.01245 13.7884 4.56333 13.5642 5.18791 13.3857C6.44558 13.0264 8.14671 12.8125 10 12.8125C11.8533 12.8125 13.5544 13.0264 14.8121 13.3857C15.4367 13.5642 15.9875 13.7884 16.3966 14.0648C16.7839 14.3264 17.1875 14.7364 17.1875 15.3125C17.1875 15.8886 16.7839 16.2986 16.3966 16.5602C15.9875 16.8366 15.4367 17.0608 14.8121 17.2393ZM10 17.1875C13.6244 17.1875 16.5625 16.348 16.5625 15.3125C16.5625 14.277 13.6244 13.4375 10 13.4375C6.37563 13.4375 3.4375 14.277 3.4375 15.3125C3.4375 16.348 6.37563 17.1875 10 17.1875Z" fill="#B96F00"/>
<path fill-rule="evenodd" clip-rule="evenodd" d="M5 16.5625C5.17259 16.5625 5.3125 16.7024 5.3125 16.875V18.5938C5.3125 18.7663 5.17259 18.9062 5 18.9062C4.82741 18.9062 4.6875 18.7663 4.6875 18.5938V16.875C4.6875 16.7024 4.82741 16.5625 5 16.5625Z" fill="#B96F00"/>
<path fill-rule="evenodd" clip-rule="evenodd" d="M15 16.5625C15.1726 16.5625 15.3125 16.7024 15.3125 16.875V18.5938C15.3125 18.7663 15.1726 18.9062 15 18.9062C14.8274 18.9062 14.6875 18.7663 14.6875 18.5938V16.875C14.6875 16.7024 14.8274 16.5625 15 16.5625Z" fill="#B96F00"/>
<path fill-rule="evenodd" clip-rule="evenodd" d="M7.5 17.1875C7.67259 17.1875 7.8125 17.3274 7.8125 17.5V18.9062C7.8125 19.0788 7.67259 19.2188 7.5 19.2188C7.32741 19.2188 7.1875 19.0788 7.1875 18.9062V17.5C7.1875 17.3274 7.32741 17.1875 7.5 17.1875Z" fill="#B96F00"/>
<path fill-rule="evenodd" clip-rule="evenodd" d="M12.8125 17.1875C12.9851 17.1875 13.125 17.3274 13.125 17.5V18.9062C13.125 19.0788 12.9851 19.2188 12.8125 19.2188C12.6399 19.2188 12.5 19.0788 12.5 18.9062V17.5C12.5 17.3274 12.6399 17.1875 12.8125 17.1875Z" fill="#B96F00"/>
<path fill-rule="evenodd" clip-rule="evenodd" d="M10.3125 17.1875C10.4851 17.1875 10.625 17.3274 10.625 17.5V18.9062C10.625 19.0788 10.4851 19.2188 10.3125 19.2188C10.1399 19.2188 10 19.0788 10 18.9062V17.5C10 17.3274 10.1399 17.1875 10.3125 17.1875Z" fill="#B96F00"/>
<path d="M19.375 12.5C19.375 11.4645 16.4369 10.625 12.8125 10.625C9.18813 10.625 6.25 11.4645 6.25 12.5V14.375C6.25 15.4105 9.18813 16.25 12.8125 16.25C16.4369 16.25 19.375 15.4105 19.375 14.375V12.5Z" fill="#D18A00"/>
<path fill-rule="evenodd" clip-rule="evenodd" d="M19.2091 11.2523C19.5964 11.5139 20 11.9239 20 12.5V14.375C20 14.9511 19.5964 15.3611 19.2091 15.6227C18.8 15.8991 18.2492 16.1233 17.6246 16.3018C16.3669 16.6611 14.6658 16.875 12.8125 16.875C10.9592 16.875 9.25808 16.6611 8.00041 16.3018C7.37583 16.1233 6.82495 15.8991 6.41586 15.6227C6.02859 15.3611 5.625 14.9511 5.625 14.375V12.5C5.625 11.9239 6.02859 11.5139 6.41586 11.2523C6.82495 10.9759 7.37583 10.7517 8.00041 10.5732C9.25808 10.2139 10.9592 10 12.8125 10C14.6658 10 16.3669 10.2139 17.6246 10.5732C18.2492 10.7517 18.8 10.9759 19.2091 11.2523ZM12.8125 10.625C16.4369 10.625 19.375 11.4645 19.375 12.5V14.375C19.375 15.4105 16.4369 16.25 12.8125 16.25C9.18813 16.25 6.25 15.4105 6.25 14.375V12.5C6.25 11.4645 9.18813 10.625 12.8125 10.625Z" fill="#B96F00"/>
<path d="M19.375 12.5C19.375 13.5355 16.4369 14.375 12.8125 14.375C9.18813 14.375 6.25 13.5355 6.25 12.5C6.25 11.4645 9.18813 10.625 12.8125 10.625C16.4369 10.625 19.375 11.4645 19.375 12.5Z" fill="#FFCF23"/>
<path fill-rule="evenodd" clip-rule="evenodd" d="M17.6246 14.4268C16.3669 14.7861 14.6658 15 12.8125 15C10.9592 15 9.25808 14.7861 8.00041 14.4268C7.37583 14.2483 6.82495 14.0241 6.41586 13.7477C6.02859 13.4861 5.625 13.0761 5.625 12.5C5.625 11.9239 6.02859 11.5139 6.41586 11.2523C6.82495 10.9759 7.37583 10.7517 8.00041 10.5732C9.25808 10.2139 10.9592 10 12.8125 10C14.6658 10 16.3669 10.2139 17.6246 10.5732C18.2492 10.7517 18.8 10.9759 19.2091 11.2523C19.5964 11.5139 20 11.9239 20 12.5C20 13.0761 19.5964 13.4861 19.2091 13.7477C18.8 14.0241 18.2492 14.2483 17.6246 14.4268ZM12.8125 14.375C16.4369 14.375 19.375 13.5355 19.375 12.5C19.375 11.4645 16.4369 10.625 12.8125 10.625C9.18813 10.625 6.25 11.4645 6.25 12.5C6.25 13.5355 9.18813 14.375 12.8125 14.375Z" fill="#B96F00"/>
<path fill-rule="evenodd" clip-rule="evenodd" d="M7.8125 13.75C7.98509 13.75 8.125 13.8899 8.125 14.0625V15.7812C8.125 15.9538 7.98509 16.0938 7.8125 16.0938C7.63991 16.0938 7.5 15.9538 7.5 15.7812V14.0625C7.5 13.8899 7.63991 13.75 7.8125 13.75Z" fill="#B96F00"/>
<path fill-rule="evenodd" clip-rule="evenodd" d="M17.8125 13.75C17.9851 13.75 18.125 13.8899 18.125 14.0625V15.7812C18.125 15.9538 17.9851 16.0938 17.8125 16.0938C17.6399 16.0938 17.5 15.9538 17.5 15.7812V14.0625C17.5 13.8899 17.6399 13.75 17.8125 13.75Z" fill="#B96F00"/>
<path fill-rule="evenodd" clip-rule="evenodd" d="M10.3125 14.375C10.4851 14.375 10.625 14.5149 10.625 14.6875V16.0938C10.625 16.2663 10.4851 16.4062 10.3125 16.4062C10.1399 16.4062 10 16.2663 10 16.0938V14.6875C10 14.5149 10.1399 14.375 10.3125 14.375Z" fill="#B96F00"/>
<path fill-rule="evenodd" clip-rule="evenodd" d="M15.625 14.375C15.7976 14.375 15.9375 14.5149 15.9375 14.6875V16.0938C15.9375 16.2663 15.7976 16.4062 15.625 16.4062C15.4524 16.4062 15.3125 16.2663 15.3125 16.0938V14.6875C15.3125 14.5149 15.4524 14.375 15.625 14.375Z" fill="#B96F00"/>
<path fill-rule="evenodd" clip-rule="evenodd" d="M13.125 14.375C13.2976 14.375 13.4375 14.5149 13.4375 14.6875V16.0938C13.4375 16.2663 13.2976 16.4062 13.125 16.4062C12.9524 16.4062 12.8125 16.2663 12.8125 16.0938V14.6875C12.8125 14.5149 12.9524 14.375 13.125 14.375Z" fill="#B96F00"/>
<path d="M17.5 9.6875C17.5 8.65197 14.5619 7.8125 10.9375 7.8125C7.31313 7.8125 4.375 8.65197 4.375 9.6875V11.5625C4.375 12.598 7.31313 13.4375 10.9375 13.4375C14.5619 13.4375 17.5 12.598 17.5 11.5625V9.6875Z" fill="#D18A00"/>
<path fill-rule="evenodd" clip-rule="evenodd" d="M17.3341 8.43976C17.7214 8.70136 18.125 9.11143 18.125 9.6875V11.5625C18.125 12.1386 17.7214 12.5486 17.3341 12.8102C16.925 13.0866 16.3742 13.3108 15.7496 13.4893C14.4919 13.8486 12.7908 14.0625 10.9375 14.0625C9.08421 14.0625 7.38308 13.8486 6.12541 13.4893C5.50083 13.3108 4.94995 13.0866 4.54086 12.8102C4.15359 12.5486 3.75 12.1386 3.75 11.5625V9.6875C3.75 9.11143 4.15359 8.70136 4.54086 8.43976C4.94995 8.16342 5.50083 7.93917 6.12541 7.76072C7.38308 7.40139 9.08421 7.1875 10.9375 7.1875C12.7908 7.1875 14.4919 7.40139 15.7496 7.76072C16.3742 7.93917 16.925 8.16342 17.3341 8.43976ZM10.9375 7.8125C14.5619 7.8125 17.5 8.65197 17.5 9.6875V11.5625C17.5 12.598 14.5619 13.4375 10.9375 13.4375C7.31313 13.4375 4.375 12.598 4.375 11.5625V9.6875C4.375 8.65197 7.31313 7.8125 10.9375 7.8125Z" fill="#B96F00"/>
<path d="M17.5 9.6875C17.5 10.723 14.5619 11.5625 10.9375 11.5625C7.31313 11.5625 4.375 10.723 4.375 9.6875C4.375 8.65197 7.31313 7.8125 10.9375 7.8125C14.5619 7.8125 17.5 8.65197 17.5 9.6875Z" fill="#FFD952"/>
<path fill-rule="evenodd" clip-rule="evenodd" d="M15.7496 11.6143C14.4919 11.9736 12.7908 12.1875 10.9375 12.1875C9.08421 12.1875 7.38308 11.9736 6.12541 11.6143C5.50083 11.4358 4.94995 11.2116 4.54086 10.9352C4.15359 10.6736 3.75 10.2636 3.75 9.6875C3.75 9.11143 4.15359 8.70136 4.54086 8.43976C4.94995 8.16342 5.50083 7.93917 6.12541 7.76072C7.38308 7.40139 9.08421 7.1875 10.9375 7.1875C12.7908 7.1875 14.4919 7.40139 15.7496 7.76072C16.3742 7.93917 16.925 8.16342 17.3341 8.43976C17.7214 8.70136 18.125 9.11143 18.125 9.6875C18.125 10.2636 17.7214 10.6736 17.3341 10.9352C16.925 11.2116 16.3742 11.4358 15.7496 11.6143ZM10.9375 11.5625C14.5619 11.5625 17.5 10.723 17.5 9.6875C17.5 8.65197 14.5619 7.8125 10.9375 7.8125C7.31313 7.8125 4.375 8.65197 4.375 9.6875C4.375 10.723 7.31313 11.5625 10.9375 11.5625Z" fill="#B96F00"/>
<path d="M14.6875 9.53125C14.6875 10.1353 13.0086 10.625 10.9375 10.625C8.86643 10.625 7.1875 10.1353 7.1875 9.53125C7.1875 8.92719 8.86643 8.4375 10.9375 8.4375C13.0086 8.4375 14.6875 8.92719 14.6875 9.53125Z" fill="#FEE790"/>
<path fill-rule="evenodd" clip-rule="evenodd" d="M5.9375 10.9375C6.11009 10.9375 6.25 11.0774 6.25 11.25V12.9688C6.25 13.1413 6.11009 13.2812 5.9375 13.2812C5.76491 13.2812 5.625 13.1413 5.625 12.9688V11.25C5.625 11.0774 5.76491 10.9375 5.9375 10.9375Z" fill="#B96F00"/>
<path fill-rule="evenodd" clip-rule="evenodd" d="M15.9375 10.9375C16.1101 10.9375 16.25 11.0774 16.25 11.25V12.9688C16.25 13.1413 16.1101 13.2812 15.9375 13.2812C15.7649 13.2812 15.625 13.1413 15.625 12.9688V11.25C15.625 11.0774 15.7649 10.9375 15.9375 10.9375Z" fill="#B96F00"/>
<path fill-rule="evenodd" clip-rule="evenodd" d="M8.4375 11.5625C8.61009 11.5625 8.75 11.7024 8.75 11.875V13.2812C8.75 13.4538 8.61009 13.5938 8.4375 13.5938C8.26491 13.5938 8.125 13.4538 8.125 13.2812V11.875C8.125 11.7024 8.26491 11.5625 8.4375 11.5625Z" fill="#B96F00"/>
<path fill-rule="evenodd" clip-rule="evenodd" d="M13.75 11.5625C13.9226 11.5625 14.0625 11.7024 14.0625 11.875V13.2812C14.0625 13.4538 13.9226 13.5938 13.75 13.5938C13.5774 13.5938 13.4375 13.4538 13.4375 13.2812V11.875C13.4375 11.7024 13.5774 11.5625 13.75 11.5625Z" fill="#B96F00"/>
<path fill-rule="evenodd" clip-rule="evenodd" d="M11.25 11.5625C11.4226 11.5625 11.5625 11.7024 11.5625 11.875V13.2812C11.5625 13.4538 11.4226 13.5938 11.25 13.5938C11.0774 13.5938 10.9375 13.4538 10.9375 13.2812V11.875C10.9375 11.7024 11.0774 11.5625 11.25 11.5625Z" fill="#B96F00"/>
<path fill-rule="evenodd" clip-rule="evenodd" d="M4.6875 9.375C4.86009 9.375 5 9.51491 5 9.6875C5 9.73237 5.0398 9.85654 5.31918 10.0304C5.58192 10.1938 5.98288 10.3525 6.50608 10.4901C7.54786 10.7643 9.00425 10.9375 10.625 10.9375C10.7976 10.9375 10.9375 11.0774 10.9375 11.25C10.9375 11.4226 10.7976 11.5625 10.625 11.5625C8.96656 11.5625 7.4542 11.3859 6.34702 11.0946C5.79575 10.9495 5.32719 10.7714 4.98901 10.561C4.66749 10.361 4.375 10.0741 4.375 9.6875C4.375 9.51491 4.51491 9.375 4.6875 9.375Z" fill="#FFF1B9"/>
</g>
<defs>
<clipPath id="clip0_239_4803">
<rect width="24.6875" height="18.4375" fill="white" transform="translate(2.8125 7.1875)"/>
</clipPath>
</defs>
</svg>
