<svg width="30" height="30" viewBox="0 0 30 30" fill="none" xmlns="http://www.w3.org/2000/svg">
<path d="M13.1875 25.8879C18.7068 27.3668 24.3847 23.9439 25.8986 18.2941C27.4124 12.6442 24.2067 6.84091 18.6874 5.36202C13.1681 3.88313 7.49023 7.30604 5.97635 12.9559C4.46247 18.6058 7.66821 24.4091 13.1875 25.8879Z" fill="#021024" fill-opacity="0.1"/>
<path d="M24.6701 17.5071C23.2407 22.8418 17.8924 26.0438 12.7245 24.6591C7.55653 23.2743 4.52585 17.8272 5.95527 12.4925C7.38468 7.15785 12.7329 3.95581 17.9009 5.34056C23.0688 6.72531 26.0995 12.1725 24.6701 17.5071Z" fill="#B96F00"/>
<path fill-rule="evenodd" clip-rule="evenodd" d="M25.2738 17.669C23.76 23.3188 18.0821 26.7418 12.5628 25.2629C7.04348 23.784 3.83773 17.9807 5.35161 12.3308C6.86549 6.68097 12.5434 3.25805 18.0627 4.73694C23.582 6.21583 26.7877 12.0191 25.2738 17.669ZM12.7245 24.6592C17.8925 26.0439 23.2407 22.8419 24.6701 17.5072C26.0995 12.1726 23.0689 6.72539 17.9009 5.34065C12.733 3.9559 7.38473 7.15793 5.95531 12.4926C4.5259 17.8273 7.55658 23.2744 12.7245 24.6592Z" fill="#975100"/>
<path d="M24.0451 16.8821C22.6157 22.2168 17.2674 25.4188 12.0995 24.0341C6.93153 22.6493 3.90085 17.2022 5.33027 11.8675C6.75968 6.53285 12.1079 3.33081 17.2759 4.71556C22.4438 6.10031 25.4745 11.5475 24.0451 16.8821Z" fill="#F9B300"/>
<path fill-rule="evenodd" clip-rule="evenodd" d="M24.6488 17.044C23.135 22.6938 17.4571 26.1168 11.9378 24.6379C6.41848 23.159 3.21273 17.3557 4.72661 11.7058C6.24049 6.05597 11.9184 2.63305 17.4377 4.11194C22.957 5.59083 26.1627 11.3941 24.6488 17.044ZM12.0995 24.0342C17.2675 25.4189 22.6157 22.2169 24.0451 16.8822C25.4745 11.5476 22.4439 6.10039 17.2759 4.71565C12.108 3.3309 6.75973 6.53293 5.33031 11.8676C3.9009 17.2023 6.93158 22.6494 12.0995 24.0342Z" fill="#975100"/>
<path d="M22.2338 16.3968C21.0724 20.7312 16.7523 23.3397 12.5846 22.223C8.41692 21.1062 5.97983 16.6872 7.14124 12.3528C8.30264 8.01837 12.6227 5.40993 16.7904 6.52666C20.9581 7.6434 23.3952 12.0624 22.2338 16.3968Z" fill="#FFCF23"/>
<path fill-rule="evenodd" clip-rule="evenodd" d="M22.8376 16.5587C21.5929 21.204 16.9461 24.0387 12.4229 22.8267C7.89969 21.6148 5.29288 16.8364 6.53758 12.1911C7.78228 7.54582 12.429 4.71105 16.9522 5.92304C21.4755 7.13504 24.0823 11.9134 22.8376 16.5587ZM12.5847 22.223C16.7524 23.3398 21.0725 20.7313 22.2339 16.3969C23.3953 12.0625 20.9582 7.64348 16.7905 6.52675C12.6228 5.41001 8.30269 8.01846 7.14128 12.3529C5.97988 16.6873 8.41697 21.1063 12.5847 22.223Z" fill="#DF8D12"/>
<path fill-rule="evenodd" clip-rule="evenodd" d="M20.4891 8.81043C19.6305 8.04526 18.5921 7.467 17.4158 7.15181C13.2481 6.03508 8.92797 8.64352 7.76657 12.9779C7.01712 15.7749 7.76611 18.6071 9.51162 20.5645C7.32821 18.6186 6.30796 15.464 7.14157 12.3529C8.30297 8.01852 12.6231 5.41008 16.7908 6.52681C18.2691 6.92292 19.5296 7.73451 20.4891 8.81043Z" fill="#FFDD65"/>
<path d="M20.1826 17.8538C20.2843 18.0768 20.186 18.34 19.963 18.4417C19.74 18.5434 19.4768 18.4451 19.3751 18.2221C19.2734 17.9991 19.3717 17.7359 19.5947 17.6342C19.8177 17.5325 20.0809 17.6308 20.1826 17.8538Z" fill="#F9B300"/>
<path d="M21.9697 16.063C22.0714 16.286 21.9731 16.5492 21.7501 16.6509C21.5271 16.7526 21.2639 16.6543 21.1622 16.4313C21.0605 16.2084 21.1588 15.9451 21.3818 15.8434C21.6048 15.7417 21.868 15.84 21.9697 16.063Z" fill="#F9B300"/>
<path d="M19.8061 15.8828C19.9078 16.1058 19.8095 16.3691 19.5865 16.4708C19.3635 16.5725 19.1003 16.4742 18.9986 16.2512C18.8969 16.0282 18.9952 15.765 19.2182 15.6632C19.4412 15.5615 19.7044 15.6599 19.8061 15.8828Z" fill="#F9B300"/>
<path d="M20.7136 16.5398C20.7844 16.6951 20.7159 16.8784 20.5606 16.9493C20.4054 17.0201 20.222 16.9516 20.1512 16.7963C20.0804 16.641 20.1488 16.4577 20.3041 16.3869C20.4594 16.316 20.6427 16.3845 20.7136 16.5398Z" fill="#F9B300"/>
<path d="M20.5935 15.1839C20.6643 15.3391 20.5958 15.5225 20.4405 15.5933C20.2852 15.6641 20.1019 15.5957 20.0311 15.4404C19.9603 15.2851 20.0287 15.1018 20.184 15.0309C20.3393 14.9601 20.5226 15.0286 20.5935 15.1839Z" fill="#F9B300"/>
<path d="M22.0051 14.8797C22.0759 15.035 22.0074 15.2183 21.8522 15.2891C21.6969 15.3599 21.5135 15.2915 21.4427 15.1362C21.3719 14.9809 21.4403 14.7976 21.5956 14.7267C21.7509 14.6559 21.9342 14.7244 22.0051 14.8797Z" fill="#F9B300"/>
<path d="M22.1872 12.95C22.258 13.1053 22.1896 13.2886 22.0343 13.3594C21.879 13.4302 21.6957 13.3618 21.6248 13.2065C21.554 13.0512 21.6225 12.8679 21.7778 12.797C21.9331 12.7262 22.1164 12.7947 22.1872 12.95Z" fill="#F9B300"/>
<path d="M21.2307 14.2136C21.3015 14.3689 21.233 14.5522 21.0777 14.6231C20.9224 14.6939 20.7391 14.6254 20.6683 14.4702C20.5975 14.3149 20.6659 14.1315 20.8212 14.0607C20.9765 13.9899 21.1598 14.0583 21.2307 14.2136Z" fill="#F9B300"/>
<path d="M21.4836 17.3648C21.5544 17.5201 21.486 17.7034 21.3307 17.7742C21.1754 17.845 20.9921 17.7766 20.9212 17.6213C20.8504 17.466 20.9189 17.2827 21.0742 17.2118C21.2295 17.141 21.4128 17.2095 21.4836 17.3648Z" fill="#F9B300"/>
<path d="M20.0777 19.1886C20.1432 19.3321 20.0799 19.5015 19.9364 19.567C19.7929 19.6324 19.6235 19.5692 19.558 19.4256C19.4925 19.2821 19.5558 19.1127 19.6993 19.0472C19.8428 18.9818 20.0123 19.0451 20.0777 19.1886Z" fill="#F9B300"/>
<path d="M20.7504 18.4131C20.7905 18.5009 20.7517 18.6046 20.6639 18.6447C20.5761 18.6847 20.4724 18.646 20.4324 18.5582C20.3923 18.4704 20.4311 18.3667 20.5189 18.3266C20.6067 18.2866 20.7103 18.3253 20.7504 18.4131Z" fill="#F9B300"/>
<path d="M19.5151 16.9824C19.5696 17.1018 19.517 17.2428 19.3975 17.2973C19.278 17.3518 19.137 17.2991 19.0825 17.1797C19.0281 17.0602 19.0807 16.9192 19.2002 16.8647C19.3196 16.8102 19.4607 16.8629 19.5151 16.9824Z" fill="#F9B300"/>
<path d="M21.3228 13.2311C21.3772 13.3506 21.3246 13.4916 21.2051 13.5461C21.0857 13.6006 20.9447 13.5479 20.8902 13.4285C20.8357 13.309 20.8883 13.168 21.0078 13.1135C21.1273 13.059 21.2683 13.1117 21.3228 13.2311Z" fill="#F9B300"/>
<path d="M22.0361 14.1078C22.0906 14.2273 22.038 14.3683 21.9185 14.4228C21.799 14.4773 21.658 14.4246 21.6035 14.3052C21.5491 14.1857 21.6017 14.0447 21.7212 13.9902C21.8406 13.9357 21.9816 13.9884 22.0361 14.1078Z" fill="#F9B300"/>
<path d="M19.2105 18.663C19.2649 18.7825 19.2123 18.9235 19.0928 18.978C18.9734 19.0325 18.8323 18.9798 18.7779 18.8603C18.7234 18.7409 18.776 18.5999 18.8955 18.5454C19.015 18.4909 19.156 18.5436 19.2105 18.663Z" fill="#F9B300"/>
<path d="M19.0757 20.0483C19.1302 20.1677 19.0775 20.3087 18.958 20.3632C18.8386 20.4177 18.6976 20.3651 18.6431 20.2456C18.5886 20.1261 18.6413 19.9851 18.7607 19.9306C18.8802 19.8762 19.0212 19.9288 19.0757 20.0483Z" fill="#F9B300"/>
<path fill-rule="evenodd" clip-rule="evenodd" d="M6.10579 11.3864C5.94412 11.326 5.86204 11.1459 5.92245 10.9843C7.00111 8.09769 9.41671 5.86372 12.4168 5.0357C12.5831 4.98978 12.7552 5.08743 12.8012 5.25379C12.8471 5.42016 12.7494 5.59226 12.5831 5.63817C9.7776 6.41248 7.51696 8.50274 6.50791 11.2031C6.4475 11.3647 6.26746 11.4468 6.10579 11.3864Z" fill="#FFD363"/>
<path fill-rule="evenodd" clip-rule="evenodd" d="M22.4738 19.1106C22.6197 19.2028 22.6632 19.3958 22.5711 19.5417C21.8401 20.6989 20.8708 21.6904 19.7321 22.4475C19.5884 22.5431 19.3944 22.504 19.2989 22.3603C19.2033 22.2166 19.2424 22.0226 19.3861 21.9271C20.4516 21.2186 21.3587 20.2907 22.0427 19.2079C22.1348 19.062 22.3278 19.0184 22.4738 19.1106Z" fill="#FFDB5B"/>
<path fill-rule="evenodd" clip-rule="evenodd" d="M9.54838 7.13494C9.54831 7.13498 9.54844 7.1349 9.54838 7.13494L9.37503 6.87492C9.54838 7.13494 9.54834 7.13497 9.54838 7.13494L9.54725 7.1357L9.54092 7.14001C9.535 7.14406 9.52577 7.15044 9.51351 7.15907C9.489 7.17634 9.45245 7.2026 9.40628 7.23723C9.31385 7.30655 9.18337 7.40904 9.03394 7.53979C8.73335 7.80281 8.36441 8.17297 8.07255 8.61077C7.97681 8.75437 7.78279 8.79317 7.63919 8.69744C7.49559 8.6017 7.45678 8.40768 7.55252 8.26408C7.88565 7.76438 8.29797 7.35329 8.62238 7.06943C8.78545 6.92674 8.92841 6.81439 9.03128 6.73723C9.08277 6.69861 9.12435 6.66872 9.15354 6.64815C9.16815 6.63786 9.17966 6.62989 9.18779 6.62433L9.19739 6.61779L9.20022 6.61589L9.20113 6.61528L9.20145 6.61507C9.20151 6.61503 9.20169 6.61491 9.37503 6.87492L9.20145 6.61507C9.34505 6.51933 9.53931 6.55798 9.63505 6.70158C9.73074 6.84512 9.69182 7.03916 9.54838 7.13494Z" fill="#FFE9AF"/>
<path fill-rule="evenodd" clip-rule="evenodd" d="M10.7984 8.69744C10.7983 8.69748 10.7984 8.6974 10.7984 8.69744L10.625 8.43742C10.7984 8.69744 10.7983 8.69747 10.7984 8.69744L10.7973 8.6982L10.7909 8.70251C10.785 8.70656 10.7758 8.71294 10.7635 8.72157C10.739 8.73884 10.7025 8.7651 10.6563 8.79973C10.5638 8.86905 10.4334 8.97154 10.2839 9.10229C9.98335 9.36531 9.61441 9.73547 9.32255 10.1733C9.22681 10.3169 9.03279 10.3557 8.88919 10.2599C8.74559 10.1642 8.70678 9.97018 8.80252 9.82658C9.13565 9.32688 9.54797 8.91579 9.87238 8.63193C10.0354 8.48924 10.1784 8.37689 10.2813 8.29973C10.3328 8.26111 10.3743 8.23122 10.4035 8.21065C10.4181 8.20036 10.4297 8.19239 10.4378 8.18683L10.4474 8.18029L10.4502 8.17839L10.4511 8.17778L10.4515 8.17757C10.4515 8.17753 10.4517 8.17741 10.625 8.43742L10.4515 8.17757C10.5951 8.08183 10.7893 8.12048 10.885 8.26408C10.9807 8.40762 10.9418 8.60166 10.7984 8.69744Z" fill="white"/>
</svg>
